<?xml version="1.0" standalone="no"?><!DOCTYPE svg PUBLIC "-//W3C//DTD SVG 1.1//EN" "http://www.w3.org/Graphics/SVG/1.1/DTD/svg11.dtd"><svg t="1718247122078" class="icon" viewBox="0 0 1024 1024" version="1.1" xmlns="http://www.w3.org/2000/svg" p-id="12283" xmlns:xlink="http://www.w3.org/1999/xlink" width="80" height="80"><path d="M453 457.2c-95.3 0-172.8-77.5-172.8-172.8S357.7 111.7 453 111.7c95.3 0 172.8 77.5 172.8 172.8S548.2 457.2 453 457.2z m0-298.6c-69.4 0-125.9 56.5-125.9 125.8S383.6 410.3 453 410.3s125.8-56.5 125.8-125.8S522.4 158.6 453 158.6zM570.4 794H159.1V642.6c0-89.9 73.1-163.1 163.1-163.1h290c15.1 0 30.1 2.1 44.5 6.4l-13.1 45c-10.2-3-20.8-4.5-31.4-4.5h-290c-64 0-116.1 52.1-116.1 116.2v104.5h364.4V794z" fill="#AAAAAA" p-id="12284"></path><path d="M864.7 874.6l-127.5-67-127.5 67L634 732.7 531.1 632.2l142.5-20.7 63.7-129.1L801 611.5l142.5 20.7-103.1 100.5 24.3 141.9z m-127.4-120l65.2 34.3-12.5-72.6 52.7-51.4-72.8-10.6-32.6-66-32.6 66-72.8 10.7 52.7 51.4-12.4 72.6 65.1-34.4z" fill="#AAAAAA" p-id="12285"></path></svg>