<?xml version="1.0" standalone="no"?><!DOCTYPE svg PUBLIC "-//W3C//DTD SVG 1.1//EN" "http://www.w3.org/Graphics/SVG/1.1/DTD/svg11.dtd"><svg t="1718247440630" class="icon" viewBox="0 0 1024 1024" version="1.1" xmlns="http://www.w3.org/2000/svg" p-id="6437" xmlns:xlink="http://www.w3.org/1999/xlink" width="80" height="80"><path d="M752.426667 330.666667c0-135.253333-110.08-245.333333-245.333334-245.333334s-245.333333 110.08-245.333333 245.333334c0 77.013333 35.626667 145.706667 91.306667 190.72C205.866667 582.186667 101.973333 727.04 101.76 896c0 23.466667 19.2 42.666667 42.666667 42.666667s42.666667-19.2 42.666666-42.666667c0-176.426667 143.573333-320 320-320 135.466667 0 245.333333-110.08 245.333334-245.333333zM507.093333 170.666667c88.32 0 160 71.68 160 160s-71.68 160-160 160-160-71.68-160-160S418.986667 170.666667 507.093333 170.666667zM640 618.24c0 23.466667 19.2 42.666667 42.666667 42.666667h196.906666c23.466667 0 42.666667-19.2 42.666667-42.666667s-19.2-42.666667-42.666667-42.666667H682.666667c-23.466667 0-42.666667 19.2-42.666667 42.666667zM879.573333 714.453333H682.666667c-23.466667 0-42.666667 19.2-42.666667 42.666667s19.2 42.666667 42.666667 42.666667h196.906666c23.466667 0 42.666667-19.2 42.666667-42.666667s-19.2-42.666667-42.666667-42.666667zM879.573333 853.333333H682.666667c-23.466667 0-42.666667 19.2-42.666667 42.666667s19.2 42.666667 42.666667 42.666667h196.906666c23.466667 0 42.666667-19.2 42.666667-42.666667s-19.2-42.666667-42.666667-42.666667z" p-id="6438"></path></svg>